# AST/ASF file generated using VICON BodyLanguage
# -----------------------------------------------
:version 1.10
:name VICON
:units
  mass 1.0
  length 0.45
  angle deg
:documentation
   .ast/.asf automatically generated from VICON data using
   VICON BodyBuilder and BodyLanguage model FoxedUp or BRILLIANT.MOD
:root
   order TX TY TZ RX RY RZ
   axis XYZ
   position 0 0 0  
   orientation 0 0 0 
:bonedata
  begin
     id 1 
     name lhipjoint
     direction 0.662698 -0.695252 0.27831 
     length 2.53073 
     axis 0 0 0  XYZ
  end
  begin
     id 2 
     name lfemur
     direction 0.34202 -0.939693 0  
     length 7.16147  
     axis 0 0 20  XYZ
    dof rx ry rz
    limits (-160.0 20.0)
           (-70.0 70.0)
           (-60.0 70.0)
  end
  begin
     id 3 
     name ltibia
     direction 0.34202 -0.939693 0   
     length 7.63967   
     axis 0 0 20   XYZ
    dof rx
    limits (-10.0 170.0)
  end
  begin
     id 4 
     name lfoot
     direction 0.0938457 -0.257721 0.961651   
     length 1.89793   
     axis -90 7.62852e-016 20   XYZ
    dof rx rz
    limits (-45.0 90.0)
           (-70.0 20.0)
  end
  begin
     id 5 
     name ltoes
     direction -0.00116841 -0.0030592 0.999995   
     length 0.955649   
     axis -90 7.62852e-016 20   XYZ
    dof rx
    limits (-90.0 20.0)
  end
  begin
     id 6 
     name rhipjoint
     direction -0.649445 -0.705948 0.282592   
     length 2.49238  
     axis 0 0 0  XYZ 
  end
  begin
     id 7 
     name rfemur
     direction -0.34202 -0.939693 0   
     length 6.90728   
     axis 0 0 -20   XYZ
    dof rx ry rz
    limits (-160.0 20.0)
           (-70.0 70.0)
           (-70.0 60.0)
  end
  begin
     id 8 
     name rtibia
     direction -0.34202 -0.939693 0   
     length 7.72868   
     axis 0 0 -20   XYZ
    dof rx
    limits (-10.0 170.0)
 end
 begin
     id 9 
     name rfoot
     direction -0.0920068 -0.252865 0.963117   
     length 1.97476  
     axis -90 -7.62852e-016 -20   XYZ
    dof rx rz
    limits (-45.0 90.0)
           (-20.0 70.0)
  end
  begin
     id 10 
     name rtoes
     direction 0.000391322 0.00230649 0.999997   
     length 0.992641   
     axis -90 -7.62852e-016 -20   XYZ
    dof rx
    limits (-90.0 20.0)
  end
  begin
     id 11 
     name lowerback
     direction -0.00875327 0.998321 -0.0572635   
     length 2.20024   
     axis 0 0 0   XYZ
    dof rx ry rz
    limits (-20.0 45.0)
           (-30.0 30.0)
           (-30.0 30.0)
  end
  begin
     id 12 
     name upperback
     direction 0.00753931 0.999972 -0.000360425   
     length 2.20538   
     axis 0 0 0   XYZ
    dof rx ry rz
    limits (-20.0 45.0)
           (-30.0 30.0)
           (-30.0 30.0)
  end
  begin
     id 13 
     name thorax
     direction 0.0117767 0.999601 0.0256663   
     length 2.21508   
     axis 0 0 0   XYZ
    dof rx ry rz
    limits (-20.0 45.0)
           (-30.0 30.0)
           (-30.0 30.0)
  end
  begin
     id 14 
     name lowerneck
     direction 0.060228 0.994909 0.0807986   
     length 1.7607   
     axis 0 0 0   XYZ
    dof rx ry rz
    limits (-20.0 45.0)
           (-30.0 30.0)
           (-30.0 30.0)
  end
  begin
     id 15 
     name upperneck
     direction -0.0563647 0.959594 -0.275685   
     length 1.75612   
     axis 0 0 0   XYZ
    dof rx ry rz
    limits (-20.0 45.0)
           (-30.0 30.0)
           (-30.0 30.0)
  end
  begin
     id 16
     name head
     direction -0.0161544 0.99458 -0.102714  
     length 1.79288  
     axis 0 0 0   XYZ
    dof rx ry rz
    limits (-20.0 45.0)
           (-30.0 30.0)
           (-30.0 30.0)
  end
  begin
     id 17 
     name lclavicle
     direction 0.93913 0.332189 -0.087669  
     length 3.52087  
     axis 0 0 0   XYZ
    dof ry rz
    limits (-20.0 10.0)
           (0.0 20.0)
  end
  begin
     id 18 
     name lhumerus
     direction 1 -4.48974e-011 -2.70836e-027   
     length 5.35289   
     axis -180 -30 -90   XYZ
    dof rx ry rz
    limits (-60.0 90.0)
           (-90.0 90.0)
           (-90.0 90.0)
  end
  begin
     id 19
     name lradius
     direction 1 -4.48961e-011 -9.76021e-027   
     length 3.27727   
     axis -180 -30 -90   XYZ
    dof rx
    limits (-10.0 170.0)
  end
  begin
     id 20
     name lwrist
     direction 1 -4.49103e-011 -2.23668e-026   
     length 1.63864   
     axis 1.44924e-014 90 90   XYZ
    dof ry
    limits (-180.0 0.0)
 end
  begin
     id 21 
     name lhand
     direction 1 3.0697e-005 0.000161777   
     length 0.54443   
     axis 2.85318e-014 90 90   XYZ
    dof rx rz
    limits (-90.0 90.0)
           (-45.0 45.0)
  end
  begin
     id 22 
     name lfingers
     direction 1 -4.49027e-011 -8.9447e-026   
     length 0.438912   
     axis 5.70628e-014 90 90   XYZ
    dof rx
    limits (0.0 90.0)
  end
  begin
     id 23
     name lthumb
     direction 0.707058 2.6516e-005 0.707156   
     length 0.630274   
     axis -90 45 -3.53137e-014   XYZ
    dof rx rz
    limits (-45.0 45.0)
           (-45.0 45.0)
  end
  begin
     id 24 
     name rclavicle
     direction -0.95274 0.284984 -0.105215   
     length 3.43401  
     axis 0 0 0   XYZ 
    dof ry rz
    limits (-10.0 20.0)
           (-20.0 0.0)
  end
  begin
     id 25 
     name rhumerus
     direction -0.999999 -0.000575019 -0.00106829  
     length 5.52077   
     axis -180 30 90   XYZ
    dof rx ry rz
    limits (-90.0 60.0)
           (-90.0 90.0)
           (-90.0 90.0)
  end
  begin
     id 26 
     name rradius
     direction -1 -4.4879e-011 -6.35415e-027   
     length 3.32364   
     axis -180 30 90   XYZ
    dof rx
    limits (-10.0 170.0)
  end
  begin
     id 27 
     name rwrist
     direction -1 -4.49048e-011 -9.98542e-027   
     length 1.66182   
     axis 6.32482e-015 -90 -90   XYZ
    dof ry
    limits (-180.0 0.0)
  end
  begin
     id 28
     name rhand
     direction -1 -4.48978e-011 -1.99771e-026   
     length 0.732235   
     axis 1.27479e-014 -90 -90   XYZ
    dof rx rz
    limits (-90.0 90.0)
           (-45.0 45.0)
  end
  begin
     id 29
     name rfingers
     direction -1 -4.49144e-011 -3.99245e-026   
     length 0.590347   
     axis 2.5496e-014 -90 -90   XYZ
    dof rx
    limits (0.0 90.0)
  end
  begin
     id 30
     name rthumb
     direction -0.707107 -6.35121e-011 0.707107   
     length 0.847624   
     axis -90 -45 -2.82974e-014   XYZ
    dof rx rz
    limits (-45.0 45.0)
           (-45.0 45.0)
  end
:hierarchy
  begin
    root lhipjoint rhipjoint lowerback
    lhipjoint lfemur
    lfemur ltibia
    ltibia lfoot
    lfoot ltoes
    rhipjoint rfemur
    rfemur rtibia
    rtibia rfoot
    rfoot rtoes
    lowerback upperback
    upperback thorax
    thorax lowerneck lclavicle rclavicle
    lowerneck upperneck
    upperneck head
    lclavicle lhumerus
    lhumerus lradius
    lradius lwrist
    lwrist lhand lthumb
    lhand lfingers
    rclavicle rhumerus
    rhumerus rradius
    rradius rwrist
    rwrist rhand rthumb
    rhand rfingers
  end

#!OML:ASF G:\Work\Work\Patient Classification 1\Elijah\terrain1\Elijah.ASF
:FULLY-SPECIFIED
:DEGREES
2995
root -4.70873 20.1085 -17.6004 913.71 14.664 168.158
lowerback -9.78563 -2.16894 -19.7181
upperback -3.55054 -0.50079 -0.617929
thorax 1.8441 0.0458454 10.3792
lowerneck -25.3282 0.872879 14.4617
upperneck 44.0093 5.19758 -11.7902
head 25.5337 4.81184 -7.85054
rclavicle 1.65488e-014 -4.81059e-014
rhumerus -47.9952 12.6854 -88.7443
rradius 37.1059
rwrist -3.70768
rhand -14.3763 22.9345
rfingers 7.12502
rthumb 11.7662 -6.71498
lclavicle 1.65488e-014 -4.81059e-014
lhumerus -53.9634 9.70532 80.0726
lradius 24.4852
lwrist 2.00948
lhand -11.534 26.7323
lfingers 7.12502
lthumb 14.506 56.2052
rfemur -30.755 7.09946 9.71228
rtibia 70.7792
rfoot -2.35637 10.4405
rtoes -6.12457
lfemur -28.0828 -6.97819 -27.0705
ltibia 22.7376
lfoot -8.89499 -10.4814
ltoes -35.4829
2996
root -4.72205 20.112 -17.667 913.597 15.6184 168.302
lowerback -9.74171 -2.36144 -19.7846
upperback -3.59208 -0.780059 -0.470791
thorax 1.86272 -0.095252 10.5473
lowerneck -24.9532 1.06021 14.521
upperneck 43.7946 5.45084 -11.8578
head 25.2257 4.84212 -7.79387
rclavicle 3.70236e-015 2.127e-014
rhumerus -48.0314 12.2709 -88.3552
rradius 37.2848
rwrist -3.75088
rhand -14.906 23.1992
rfingers 7.12502
rthumb 11.2554 -6.47887
lclavicle 3.70236e-015 2.127e-014
lhumerus -53.4199 10.691 79.062
lradius 23.2818
lwrist 0.962306
lhand -11.5331 26.0851
lfingers 7.12502
lthumb 14.5069 55.5579
rfemur -32.1203 6.03153 10.114
rtibia 73.0115
rfoot -1.1588 8.39335
rtoes -2.63553
lfemur -27.6902 -6.68555 -27.0604
ltibia 22.8938
lfoot -9.19461 -10.0139
ltoes -35.0503
2997
root -4.72984 20.1238 -17.7299 913.407 16.624 168.472
lowerback -9.67692 -2.42267 -19.7432
upperback -3.53568 -0.887694 -0.457908
thorax 1.92287 -0.164379 10.5251
lowerneck -24.557 1.26628 14.6487
upperneck 43.4375 5.56346 -11.8413
head 24.6991 4.80139 -7.71164
rclavicle -3.15571e-015 -1.47101e-014
rhumerus -47.7129 11.5005 -87.9653
rradius 37.2925
rwrist -3.67947
rhand -15.3385 23.3259
rfingers 7.12502
rthumb 10.8383 -6.37439
lclavicle -3.15571e-015 -1.47101e-014
lhumerus -52.4246 11.1765 78.1777
lradius 21.6318
lwrist 0.342487
lhand -12.4401 24.6667
lfingers 7.12502
lthumb 13.6329 54.2002
rfemur -33.3783 5.09813 10.602
rtibia 75.1373
rfoot -0.762922 6.58106
rtoes 1.11675
lfemur -27.1291 -6.10269 -27.068
ltibia 22.9207
lfoot -9.55311 -9.61631
ltoes -35.1354
2998
root -4.72968 20.1474 -17.7913 913.144 17.5986 168.658
lowerback -9.58618 -2.36717 -19.6105
upperback -3.39067 -0.840489 -0.586626
thorax 2.01563 -0.166719 10.3121
lowerneck -24.2909 1.40933 14.8226
upperneck 43.1044 5.43899 -11.701
head 24.1789 4.69406 -7.63524
rclavicle 3.45388e-015 3.24019e-014
rhumerus -47.0801 10.5401 -87.7634
rradius 37.0794
rwrist -3.60836
rhand -15.7474 23.2102
rfingers 7.12502
rthumb 10.4438 -6.5104
lclavicle 3.45388e-015 3.24019e-014
lhumerus -52.0915 12.3092 76.3354
lradius 21.742
lwrist -1.73798
lhand -12.3126 24.9992
lfingers 7.12502
lthumb 13.7557 54.5244
rfemur -34.4464 4.11293 11.2178
rtibia 77.1233
rfoot -2.99743 6.08852
rtoes -4.35933
lfemur -26.4952 -5.51998 -27.0258
ltibia 22.9015
lfoot -9.921 -9.26338
ltoes -35.5718
2999
root -4.72436 20.1729 -17.8437 912.903 18.6035 168.839
lowerback -9.36638 -2.47109 -19.8074
upperback -3.38547 -1.02981 -0.462312
thorax 1.95935 -0.261366 10.5396
lowerneck -23.6983 1.54414 14.8841
upperneck 42.7704 5.59031 -11.7254
head 23.6514 4.67846 -7.55317
rclavicle -5.76476e-015 5.63555e-014
rhumerus -46.839 10.4028 -87.663
rradius 37.1185
rwrist -3.80902
rhand -15.8023 23.176
rfingers 7.12502
rthumb 10.3908 -6.54727
lclavicle -5.76476e-015 5.63555e-014
lhumerus -51.9371 13.7482 74.7155
lradius 21.5382
lwrist -3.38639
lhand -13.1082 25.1697
lfingers 7.12502
lthumb 12.9889 54.7453
rfemur -35.5801 3.06478 11.9047
rtibia 79.022
rfoot -3.20991 5.74294
rtoes -3.67491
lfemur -25.9917 -5.00822 -26.9324
ltibia 22.9482
lfoot -9.79058 -9.32471
ltoes -34.5795
3000
root -4.71565 20.2126 -17.8972 912.68 19.6649 169.017
lowerback -9.14298 -2.56572 -20.0597
upperback -3.3878 -1.20514 -0.315556
thorax 1.89049 -0.347099 10.8266
lowerneck -23.1185 1.72095 14.9791
upperneck 42.3927 5.80141 -11.7829
head 23.14 4.68802 -7.48362
rclavicle -2.84262e-014 7.88181e-014
rhumerus -46.8349 10.3343 -87.6016
rradius 37.4676
rwrist -4.22835
rhand -15.7534 22.4805
rfingers 7.12502
rthumb 10.4381 -7.24038
lclavicle -2.84262e-014 7.88181e-014
lhumerus -52.0606 15.2237 73.1075
lradius 21.7682
lwrist -4.98915
lhand -14.4893 25.209
lfingers 7.12502
lthumb 11.6572 54.8648
rfemur -36.7619 2.11381 12.5892
rtibia 80.7833
rfoot -3.11061 5.75771
rtoes -2.70187
lfemur -25.6428 -4.72702 -26.7405
ltibia 22.9822
lfoot -9.06036 -9.43028
ltoes -33.4706
3001
root -4.70656 20.2798 -17.9557 912.452 20.6913 169.194
lowerback -9.0284 -2.50097 -20.0206
upperback -3.24315 -1.14269 -0.420775
thorax 1.96358 -0.339676 10.694
lowerneck -22.7482 1.86147 15.1555
upperneck 41.9255 5.6883 -11.6575
head 22.5334 4.57805 -7.40291
rclavicle 3.49768e-014 4.07509e-014
rhumerus -46.4179 9.37469 -87.4387
rradius 37.4743
rwrist -4.18171
rhand -15.8372 21.5546
rfingers 7.12502
rthumb 10.3572 -8.17036
lclavicle 3.49768e-014 4.07509e-014
lhumerus -52.0516 15.9458 71.7894
lradius 22.6736
lwrist -6.49377
lhand -14.3414 25.932
lfingers 7.12502
lthumb 11.7999 55.5796
rfemur -37.8405 1.12901 13.3065
rtibia 82.2587
rfoot -3.22019 6.24394
rtoes -3.01514
lfemur -25.5477 -5.07957 -26.3333
ltibia 22.9568
lfoot -7.38406 -9.2979
ltoes -32.6168
3002
root -4.70557 20.2984 -18.0018 912.194 21.6645 169.37
lowerback -8.846 -2.57689 -20.0624
upperback -3.17112 -1.28931 -0.396534
thorax 1.98909 -0.42611 10.7279
lowerneck -21.912 2.0037 15.2266
upperneck 41.322 5.78498 -11.6168
head 21.7351 4.52414 -7.26783
rclavicle -1.65135e-014 3.25137e-014
rhumerus -45.8641 8.58309 -87.1585
rradius 36.9657
rwrist -3.65718
rhand -15.6121 21.2974
rfingers 7.12502
rthumb 10.5743 -8.41656
lclavicle -1.65135e-014 3.25137e-014
lhumerus -52.0959 16.4815 70.91
lradius 23.4638
lwrist -7.0003
lhand -14.1202 26.6674
lfingers 7.12502
lthumb 12.0132 56.3026
rfemur -39.0363 0.00806407 14.1153
rtibia 83.8486
rfoot -3.16174 6.98996
rtoes -4.64409
lfemur -24.7985 -4.54015 -26.3833
ltibia 22.9673
lfoot -7.86909 -8.51443
ltoes -33.3288
